<svg version="1.1" xmlns="http://www.w3.org/2000/svg" viewBox="0 0 200 200" style="enable-background:new 0 0 200 200;">
  <!-- Left shape (White) -->
  <path fill="#FFFFFF" d="M 20 180 L 20 120 Q 20 100 40 80 L 60 60 Q 80 40 100 50 L 120 60 Q 140 70 150 80 L 160 90 Q 170 100 170 110 L 170 120 L 170 180 Z"/>
  
  <!-- Right shape (Purple) -->
  <path fill="#9900FF" d="M 80 100 L 100 60 L 120 100 L 120 140 Q 120 160 140 170 L 160 180 L 180 160 L 180 140 L 180 100 Q 180 80 160 70 L 140 60 L 120 70 L 100 80 Z"/>
</svg>
